# xmcd
#
# Track frame offsets: 
#        150
#        12622
#        33149
#        45948
#        58073
#        66089
#        79184
#        94458
#        111422
#        130933
#        146058
#        161725
#        170194
#
# Disc length: 2447 seconds
#
# Revision: 0
# Processed by: cddbd v1.5.2PL0 Copyright (c) Steve Scherf et al.
# Submitted via: ExactAudioCopy v0.95b4
#
DISCID=bb098d0d
DTITLE=Diana Braithwaite and Chris Whiteley - Morning Sun
DYEAR=2006
DGENRE=Blues
TTITLE0=Cold And Lonely Night
TTITLE1=Birds That Whistle
TTITLE2=Great Big City
TTITLE3=Blessing In Disguise
TTITLE4=Travellin' Blues
TTITLE5=Mr Subway Man
TTITLE6=No Longer Will I Roam
TTITLE7=The Drifter
TTITLE8=Box Car Blues
TTITLE9=In My Garden
TTITLE10=Don't Mistreat Me
TTITLE11=Leaving It All Behind
TTITLE12=Morning Sun
EXTD=
EXTT0=
EXTT1=
EXTT2=
EXTT3=
EXTT4=
EXTT5=
EXTT6=
EXTT7=
EXTT8=
EXTT9=
EXTT10=
EXTT11=
EXTT12=
PLAYORDER=
